<svg width="190" height="129" viewBox="0 0 190 129" fill="none" xmlns="http://www.w3.org/2000/svg">
<path d="M164.432 102.747C155.702 91.2223 145.906 80.5355 135.172 70.8276C124.321 61.073 114.693 54.6452 114.035 55.3833C113.378 56.1213 121.625 63.9392 131.124 74.3285C140.611 84.6887 149.557 95.5267 157.925 106.799C163.232 113.889 166.15 117.867 168.142 119.971L164.695 119.439L156.303 117.914C150.936 116.894 146.078 115.992 141.975 115.3C133.776 113.896 128.592 113.353 128.392 114.151C128.193 114.949 133.013 116.963 141.034 119.418C145.033 120.642 149.812 121.993 155.197 123.356C157.862 124.097 160.732 124.67 163.706 125.273C165.21 125.556 166.755 125.851 168.387 126.08C169.393 126.203 173.906 126.964 175.369 124.384C175.567 124.079 175.801 123.807 175.983 123.476L176.374 122.642C176.495 122.204 176.594 121.849 176.83 121.488C177.044 120.717 177.352 120.017 177.57 119.314C177.97 117.875 178.353 116.499 178.73 115.144C179.483 112.434 179.902 109.788 180.35 107.285C181.223 102.273 181.805 97.7409 182.19 93.9177C182.939 86.2655 182.831 81.4518 181.947 81.296C181.064 81.1401 179.558 85.6622 177.643 93.0352C176.728 96.7334 175.669 101.11 174.45 105.982C173.784 108.379 173.229 110.942 172.532 113.533L172.294 114.388C169.922 110.372 167.306 106.502 164.462 102.8" fill="#CBCCCF"/>
<path d="M105.627 48.7539C106.478 47.7664 104.361 44.7751 100.792 42.2189C97.2243 39.6627 89.4606 35.6906 88.7097 36.7965C87.9588 37.9024 94.4343 43.3978 97.8732 45.9407C101.312 48.4835 104.77 49.7623 105.627 48.7539Z" fill="#CBCCCF"/>
<path d="M79.9292 31.5057C80.5042 30.6716 77.6388 28.0636 73.4334 25.834C69.2279 23.6044 60.4552 20.2816 59.9905 21.2126C59.5258 22.1436 67.4536 26.7778 71.5472 28.9984C75.6409 31.219 79.3697 32.3663 79.9929 31.5235" fill="#CBCCCF"/>
<path d="M52.4087 17.9233C52.7267 17.2565 49.5196 15.1994 45.1703 13.5153C40.8209 11.8312 31.9369 9.44724 31.7103 10.1827C31.4837 10.9182 39.8935 14.2924 44.1236 16.0081C48.3537 17.7238 52.0906 18.5902 52.4291 17.929" fill="#CBCCCF"/>
<path d="M13.8593 5.62694C18.5245 6.66215 22.3377 7.32951 22.4729 6.84319C22.6081 6.35688 18.9669 4.9078 14.2173 3.84914C11.3019 3.19469 8.35585 2.68888 5.39157 2.33379C3.62511 1.98016 1.81381 1.93494 0.0440182 2.20031C1.69339 2.88691 3.42283 3.36779 5.18989 3.63114L13.8326 5.64137" fill="#CBCCCF"/>
</svg>
