<svg width="225" height="120" viewBox="0 0 225 120" fill="none" xmlns="http://www.w3.org/2000/svg">
<path d="M224.951 68.9201C225.016 68.2857 225.016 67.6462 224.951 67.0118C224.862 65.827 224.387 64.7042 223.599 63.8165C222.555 62.82 221.186 62.2366 219.745 62.1745C218.992 62.0636 218.239 61.9527 217.53 61.8639C216.09 61.642 214.673 61.4423 213.299 61.2647C210.508 60.9097 207.828 60.5547 205.281 60.2218C200.186 59.6227 195.623 59.1568 191.769 58.8461C184.083 58.247 179.321 58.3136 179.21 59.1789C179.099 60.0443 183.64 61.5754 191.171 63.3505C194.937 64.2381 199.455 65.1923 204.461 66.1686C206.986 66.6124 209.645 67.1228 212.413 67.6109C213.757 67.8624 215.13 68.1065 216.533 68.3431C215.769 68.8223 215.029 69.3408 214.318 69.8964C211.239 71.96 206.455 75.7766 198.259 81.3461C186.63 89.3211 174.175 96.0166 161.113 101.317C151.568 105.119 141.648 107.901 131.52 109.615C125.936 110.546 120.298 111.109 114.641 111.302C108.724 111.438 102.805 111.186 96.9207 110.547C90.9371 109.82 85.0145 108.656 79.2003 107.064C73.3122 105.429 67.5701 103.307 62.0337 100.717C51.0531 95.6145 41.075 88.5801 32.5736 79.9482C28.5475 75.8004 24.8449 71.3495 21.4983 66.6346C18.3821 62.1523 15.6055 57.4423 13.1919 52.5443C8.96469 44.1845 5.84465 35.3078 3.91084 26.139C2.67754 19.868 1.93692 13.5098 1.6958 7.12275C1.87659 4.74382 1.76501 2.35167 1.36356 -9.77546e-06C0.626266 2.28864 0.230667 4.67388 0.189575 7.0784C-0.225617 13.6416 0.0415946 20.2303 0.986968 26.7381C2.44963 36.3981 5.24516 45.8076 9.29339 54.6967C11.6359 59.929 14.3758 64.9733 17.4891 69.7854C20.8468 74.8883 24.6098 79.7117 28.7415 84.2085C37.4895 93.608 47.8694 101.337 59.3756 107.019C65.1689 109.888 71.193 112.263 77.384 114.12C83.5048 115.932 89.7545 117.275 96.079 118.136C108.176 119.749 120.443 119.592 132.494 117.67C143.113 115.95 153.512 113.071 163.505 109.083C177.147 103.616 190.033 96.4195 201.848 87.6701C207.363 83.654 212.548 79.2019 217.353 74.3564L217.862 73.8017C216.605 84.2096 216.168 94.7007 216.555 105.177C216.888 114.386 217.907 120.022 218.771 120C220.543 120 220.764 97.4556 224.795 70.3402L224.951 68.9201Z" fill="#CBCCCF"/>
</svg>
